<?xml version="1.0" encoding="UTF-8"?>
<svg id="Calque_1" xmlns="http://www.w3.org/2000/svg" version="1.1" viewBox="142 249 558 96" fill="#FFFFFF">
  <!-- Generator: Adobe Illustrator 30.2.1, SVG Export Plug-In . SVG Version: 2.1.1 Build 1)  -->
  <g>
    <g>
      <path d="M268.2,273.1h6.3v42.5h25v5.8h-31.3v-48.3Z"/>
      <path d="M304,273.2h7.7v8.8h-7.7v-8.8ZM304.8,286.3h6.1v35.2h-6.1v-35.2Z"/>
      <path d="M315.4,286.3h6.4l10.4,28.6h0l10.3-28.6h6.4l-12.9,35.2h-7.8l-12.9-35.2Z"/>
      <path d="M352.9,273.2h7.7v8.8h-7.7v-8.8ZM353.7,286.3h6.1v35.2h-6.1v-35.2Z"/>
      <path d="M367.3,286.3h6.1v6.9h.2c2-5.3,6.3-7.9,11.6-7.9s12.5,4.8,12.5,13.5v22.7h-6.3v-21.3c0-6.3-3.6-9.3-8.1-9.3-6.5,0-9.6,6.6-9.6,12.4v18.2h-6.3v-35.1Z"/>
      <path d="M405.3,325.4h6.1c1.4,5.5,5.4,6.8,9.2,6.8s10.1-2.4,10.1-11.3v-5.3h-.6c-2.2,4.4-6.1,7.1-11.6,7.1-9.4,0-15.1-8-15.1-18.8s5.9-18.6,15-18.6,9.7,2.8,11.9,7.1h.4v-6.2h5.7v34.6c0,12.1-7.3,16.5-15.9,16.5s-13.8-3.9-15.2-11.8ZM430.2,303.9c0-7.1-3.2-13.3-10.3-13.3s-10.2,5.3-10.2,13.3,3.7,13.4,10.3,13.4,10.2-6.4,10.2-13.4Z"/>
      <path d="M461,273.3h9.7l15.8,40.2h.5l15.5-40.2h9.8v48.2h-6.3v-40.6h-.3l-15.8,40.6h-6.3l-15.9-40.6h-.4v40.6h-6.3v-48.2Z"/>
      <path d="M518.7,303.9c0-11,6.2-18.6,17.3-18.6s17.2,7.5,17.2,18.6-6.1,18.8-17.2,18.8-17.3-7.7-17.3-18.9ZM547.1,303.9c0-8.8-4.4-13.3-11.1-13.3s-11.2,4.6-11.2,13.3,4.6,13.5,11.3,13.5,11.1-4.7,11.1-13.5Z"/>
      <path d="M584.9,321.5v-5.9h-.5c-2.2,4.4-6.1,7.1-11.6,7.1-9.4,0-15.1-8-15.1-18.8s5.9-18.6,15-18.6,9.7,2.8,11.9,7h.3v-19.2h6.2v48.3h-6.2ZM584.5,303.9c0-7.1-3.2-13.3-10.3-13.3s-10.2,5.3-10.2,13.3,3.7,13.4,10.3,13.4,10.2-6.4,10.2-13.4Z"/>
      <path d="M613.9,322.7c-11.2,0-17.3-7.6-17.3-18.8s6.1-18.6,17.3-18.6,16.2,6.5,16.8,19.3h-27.8c.3,9.3,5.6,13.1,11.2,13.1s9.2-3,10.4-8.7h6.2c-1.6,8.4-7.4,13.8-16.7,13.8ZM613.9,290.4c-5.7,0-9.7,3.3-10.8,9.6h21c-1.4-6.2-5.2-9.6-10.1-9.6Z"/>
      <path d="M636.2,273.2h6.1v48.3h-6.1v-48.3Z"/>
      <path d="M647.9,308.9h5.8c1.3,7.5,6.9,8.5,10.4,8.5s8.4-2,8.4-5.6-1-4.3-7.1-5.6l-4.9-1c-5.2-1-11.5-3.5-11.5-9.8,0-7.3,7.4-10.1,13.7-10.1,6.6,0,14.1,2.5,15.5,12.3h-6c-1.2-5.1-4.1-7.5-9.4-7.6-3.8,0-7.5,1.6-7.6,5.3,0,1.9,1.2,3.8,6.8,5l6.3,1.3c6.7,1.4,10.3,4.3,10.3,9.9,0,7.5-6.7,10.8-14.5,10.8s-14.7-1.9-16.1-13.4Z"/>
    </g>
    <path d="M683.6,314.9c0-3.7,2.7-6.7,6.7-6.7s6.7,3,6.7,6.7-2.7,6.7-6.7,6.7-6.7-3-6.7-6.7ZM695.6,314.9c0-2.9-2.2-5.4-5.4-5.4s-5.4,2.5-5.4,5.4,2.2,5.4,5.4,5.4,5.4-2.5,5.4-5.4ZM691.5,315.5h-2.7v2.8h-1.5v-7.2h4c1.3,0,2,.9,2,1.9s-.4,1.5-1.4,1.7h0s.4,0,.4,0c.5,0,.7.2.7.7l.5,2.9h-1.6l-.5-2.8ZM691.9,313.2c0-.7-.7-.8-1.2-.8h-1.8v1.7h2c.6,0,1-.3,1-.9Z"/>
  </g>
  <g>
    <rect x="200" y="254" width="3.2" height="53.2"/>
    <rect x="200" y="313.2" width="3.2" height="28.1"/>
    <rect x="213.8" y="261.1" width="3.2" height="15.5"/>
    <rect x="213.8" y="282.5" width="3.2" height="51.7"/>
    <rect x="227.6" y="276.6" width="3.2" height="42.2"/>
    <rect x="186.3" y="251.9" width="3.2" height="11.6"/>
    <rect x="186.3" y="269.4" width="3.2" height="74"/>
    <rect x="172.5" y="254" width="3.2" height="70.7"/>
    <rect x="172.5" y="330.6" width="3.2" height="10.6"/>
    <rect x="158.7" y="261.1" width="3.2" height="25"/>
    <rect x="158.7" y="292.1" width="3.2" height="42.2"/>
    <rect x="144.9" y="276.6" width="3.2" height="42.2"/>
  </g>
</svg>